<?xml version="1.0" encoding="UTF-8"?>
<svg xmlns="http://www.w3.org/2000/svg" viewBox="0 0 4546.67 1500">
  <defs>
    <style>
      .cls-1, .cls-2 {
        fill: #fff;
      }

      .cls-3 {
        stroke: #fff;
      }

      .cls-3, .cls-2 {
        stroke-miterlimit: 10;
      }

      .cls-2 {
        stroke: #000;
        stroke-linecap: round;
        stroke-width: 5px;
      }

      .cls-4 {
        fill: #00a99d;
      }
    </style>
  </defs>
  <g id="Layer_3" data-name="Layer 3">
    <rect class="cls-3" x="1761.33" y="238" width="1026.75" height="1026.75"/>
  </g>
  <g id="Logo_Master">
    <path class="cls-1" d="M2274.71,857.79c-1.38,0-2.5-1.12-2.5-2.5v-189.22c0-2.99-.87-5.89-2.53-8.39l-13.95-21.08c-1.29-1.95-3.05-3.61-5.08-4.78l-159.86-92.28c-1.2-.69-1.61-2.22-.92-3.42.69-1.2,2.22-1.61,3.42-.92l159.86,92.28c2.7,1.56,5.03,3.75,6.75,6.35l13.95,21.08c2.2,3.32,3.36,7.17,3.36,11.15v189.22c0,1.38-1.12,2.5-2.5,2.5Z"/>
    <path class="cls-1" d="M2274.71,673.94c-1.38,0-2.5-1.12-2.5-2.5v-5.45c0-3.85,1.09-7.6,3.16-10.84l13.25-20.84c1.74-2.74,4.15-5.05,6.96-6.67l160.44-92.43c1.2-.69,2.72-.28,3.41.92.69,1.2.28,2.73-.92,3.41l-160.44,92.43c-2.12,1.22-3.93,2.95-5.24,5.02l-13.25,20.84c-1.55,2.44-2.37,5.26-2.37,8.16v5.45c0,1.38-1.12,2.5-2.5,2.5Z"/>
    <path class="cls-1" d="M2289.21,633.63s-.08,0-.12,0l-30.62-.18c-3.53-.02-7-.97-10.05-2.75l-30.33-17.67c-1.19-.7-1.6-2.23-.9-3.42.69-1.19,2.23-1.6,3.42-.9l30.33,17.67c2.29,1.34,4.91,2.05,7.57,2.07l30.62.18c2.65.01,5.28-.67,7.59-1.98l38.45-21.81c1.2-.68,2.73-.26,3.41.94s.26,2.73-.94,3.41l-38.45,21.81c-3.04,1.72-6.48,2.63-9.97,2.63Z"/>
    <path class="cls-1" d="M2287.42,857.78h-.06l-25.24-.08c-3.54-.01-7.02-.96-10.07-2.75l-148.93-87.43c-3.01-1.76-5.51-4.3-7.24-7.32l-12.39-21.64c-1.73-3.02-2.65-6.47-2.65-9.95v-171.38c0-3.5.92-6.95,2.67-9.99l12.48-21.69c1.75-3.03,4.27-5.57,7.29-7.33l147.91-85.99c3.04-1.77,6.51-2.71,10.02-2.71l25.11-.06c3.49-.04,6.99.92,10.03,2.67l149.65,86.12c3.05,1.75,5.59,4.29,7.35,7.33l12.57,21.74c1.76,3.04,2.69,6.51,2.69,10.03v172.73c0,3.51-.93,6.97-2.68,10.01l-12.52,21.71c-1.75,3.04-4.28,5.57-7.32,7.33l-148.62,85.96c-3.04,1.76-6.51,2.69-10.03,2.69ZM2286.35,434.46h-.03l-25.11.06c-2.64,0-5.24.71-7.52,2.04l-147.91,85.99c-2.27,1.32-4.16,3.22-5.47,5.5h0l-12.48,21.69c-1.31,2.28-2,4.87-2,7.49v171.38c0,2.62.69,5.2,1.99,7.47l12.39,21.64c1.3,2.27,3.18,4.17,5.43,5.49l148.93,87.43c2.29,1.34,4.9,2.06,7.56,2.07l25.24.08c2.66-.03,5.27-.69,7.57-2.02l148.62-85.96c2.28-1.32,4.18-3.22,5.49-5.5l12.52-21.71c1.31-2.28,2.01-4.88,2.01-7.51v-172.73c0-2.64-.7-5.24-2.02-7.52l-12.57-21.74c-1.32-2.28-3.23-4.19-5.51-5.5l-149.65-86.12c-2.28-1.31-4.87-2-7.5-2Z"/>
    <path class="cls-4" d="M2365.76,508.49c18.12,10.46,27.77,19.41,28.95,26.83,1.18,7.43-7.06,16.24-24.71,26.42-16.7,9.64-31.2,14.86-43.52,15.67-12.32.81-27.18-3.81-44.58-13.86l-9.36-5.4-57.06-32.95-29.69,17.14-36.54-21.1,119.31-68.88,97.2,56.12ZM2331.84,541.16c6.68-3.86,9.62-7.22,8.83-10.08-.79-2.87-4.79-6.38-11.99-10.54l-52.56-30.35-31.66,18.28,53.1,30.66c6.96,4.02,12.83,6.27,17.62,6.77,4.79.49,10.34-1.09,16.66-4.74Z"/>
    <path class="cls-4" d="M2212.97,647.47c12,6.93,21.18,14.84,27.54,23.75,6.36,8.91,9.54,19.97,9.54,33.19,0,5.78-.45,10.45-1.35,13.99-.9,3.54-2.52,5.81-4.86,6.8-2.34.99-4.5,1.33-6.48,1.01s-4.77-.96-8.37-1.94c9.72,7.4,16.44,14.11,20.16,20.11,3.72,6,5.58,14.45,5.58,25.32,0,15.29-3.21,23.86-9.63,25.73-6.42,1.87-16.53-1.18-30.33-9.15l-115.75-66.82v-137.77l113.95,65.79ZM2213.15,689.3c0-4.68-1.17-8.45-3.51-11.32-2.34-2.87-5.79-5.62-10.35-8.25l-63.72-36.79v23.96l63,36.38c4.8,2.77,8.43,4.11,10.89,4.02,2.46-.09,3.69-2.76,3.69-7.99ZM2218.01,743.53c0-3.72-1.05-7.22-3.15-10.49-2.1-3.28-6.21-6.68-12.33-10.22l-66.96-38.66v25.2l66.42,38.35c4.2,2.42,7.92,4.06,11.16,4.89,3.24.84,4.86-2.18,4.86-9.07Z"/>
    <path class="cls-4" d="M2334.9,748.57c0,5.65,1.65,8.24,4.95,7.78,3.3-.46,7.89-2.39,13.77-5.78l17.28-9.77,24.48-14.96c6.72-3.88,11.1-7.37,13.14-10.48,2.04-3.1,3.06-6.72,3.06-10.86,0-3.72-1.17-6-3.51-6.86-2.34-.85-6.81.63-13.41,4.44l-5.94,3.43-60.12,33.26c-11.28,6.51-19.23,7.84-23.85,3.96-4.62-3.87-6.93-12.56-6.93-26.05,0-11.43,1.47-21.16,4.41-29.19,2.94-8.03,8.28-15.42,16.02-22.16,7.74-6.74,17.88-13.94,30.42-21.59,12.54-7.65,20.97-12.73,25.29-15.22l25.56-14.35c10.2-5.89,18.42-9.71,24.66-11.45,6.24-1.74,10.65-.88,13.23,2.59,2.58,3.47,4.23,6.99,4.95,10.57.72,3.58,1.08,8.88,1.08,15.9l-35.82,20.68c0-4.82-1.23-7.48-3.69-7.99-2.46-.51-5.91.52-10.35,3.08l-17.64,9.98-27.9,17.14c-3.72,2.15-6.87,4.76-9.45,7.83-2.58,3.07-3.87,6.47-3.87,10.19,0,5.1,1.53,7.55,4.59,7.37,3.06-.18,7.23-1.8,12.51-4.85l3.78-2.18,24.48-13.72,24.12-13.72c15.48-8.94,26.73-12.65,33.75-11.12,7.02,1.52,10.53,10.69,10.53,27.48s-3.15,29.22-9.45,38.92c-6.3,9.7-16.71,18.74-31.23,27.12l-46.8,28.47-24.48,13.52c-12.96,7.48-22.5,10.58-28.62,9.29-6.12-1.29-9.18-9.23-9.18-23.82v-8.26l36-20.79.18,2.17Z"/>
    <g id="Scanlines">
      <g>
        <line class="cls-2" x1="2259.82" y1="672.6" x2="2088.67" y2="574.03"/>
        <line class="cls-2" x1="2259.82" y1="683.59" x2="2088.67" y2="585.02"/>
        <line class="cls-2" x1="2259.82" y1="694.57" x2="2088.67" y2="596.01"/>
        <line class="cls-2" x1="2259.82" y1="705.56" x2="2088.67" y2="606.99"/>
        <line class="cls-2" x1="2259.82" y1="716.55" x2="2088.67" y2="617.98"/>
        <line class="cls-2" x1="2259.82" y1="727.54" x2="2088.67" y2="628.97"/>
        <line class="cls-2" x1="2259.82" y1="738.52" x2="2088.67" y2="639.96"/>
        <line class="cls-2" x1="2259.82" y1="749.51" x2="2088.67" y2="650.94"/>
        <line class="cls-2" x1="2259.82" y1="760.5" x2="2088.67" y2="661.93"/>
        <line class="cls-2" x1="2259.82" y1="771.49" x2="2088.67" y2="672.92"/>
        <line class="cls-2" x1="2259.82" y1="782.47" x2="2088.67" y2="683.91"/>
        <line class="cls-2" x1="2259.82" y1="793.46" x2="2088.67" y2="694.89"/>
        <line class="cls-2" x1="2259.82" y1="804.45" x2="2088.67" y2="705.88"/>
        <line class="cls-2" x1="2259.82" y1="815.44" x2="2088.67" y2="716.87"/>
      </g>
      <g>
        <line class="cls-2" x1="2441.36" y1="592.49" x2="2295.24" y2="672.6"/>
        <line class="cls-2" x1="2442.94" y1="603.44" x2="2294.33" y2="685.29"/>
        <line class="cls-2" x1="2444.53" y1="614.39" x2="2293.42" y2="697.98"/>
        <line class="cls-2" x1="2446.11" y1="625.35" x2="2292.5" y2="710.68"/>
        <line class="cls-2" x1="2447.7" y1="636.3" x2="2291.59" y2="723.37"/>
        <line class="cls-2" x1="2449.28" y1="647.25" x2="2290.68" y2="736.06"/>
        <line class="cls-2" x1="2450.87" y1="658.2" x2="2289.76" y2="748.75"/>
        <line class="cls-2" x1="2452.45" y1="669.15" x2="2288.85" y2="761.45"/>
        <line class="cls-2" x1="2454.03" y1="680.1" x2="2287.94" y2="774.14"/>
        <line class="cls-2" x1="2455.62" y1="691.06" x2="2287.03" y2="786.83"/>
        <line class="cls-2" x1="2457.2" y1="702.01" x2="2286.11" y2="799.52"/>
        <line class="cls-2" x1="2458.79" y1="712.96" x2="2285.2" y2="812.22"/>
        <line class="cls-2" x1="2460.37" y1="723.91" x2="2284.29" y2="824.91"/>
        <line class="cls-2" x1="2461.96" y1="734.86" x2="2283.37" y2="837.6"/>
      </g>
      <g>
        <line class="cls-2" x1="2430.97" y1="543.52" x2="2259.82" y2="444.95"/>
        <line class="cls-2" x1="2420.53" y1="548.22" x2="2250.28" y2="450.27"/>
        <line class="cls-2" x1="2410.08" y1="552.92" x2="2240.74" y2="455.6"/>
        <line class="cls-2" x1="2399.63" y1="557.62" x2="2231.19" y2="460.92"/>
        <line class="cls-2" x1="2389.18" y1="562.32" x2="2221.65" y2="466.24"/>
        <line class="cls-2" x1="2378.73" y1="567.02" x2="2212.11" y2="471.56"/>
        <line class="cls-2" x1="2368.29" y1="571.72" x2="2202.57" y2="476.88"/>
        <line class="cls-2" x1="2357.84" y1="576.42" x2="2193.03" y2="482.21"/>
        <line class="cls-2" x1="2347.39" y1="581.12" x2="2183.48" y2="487.53"/>
        <line class="cls-2" x1="2336.94" y1="585.82" x2="2173.94" y2="492.85"/>
        <line class="cls-2" x1="2326.49" y1="590.52" x2="2164.4" y2="498.17"/>
        <line class="cls-2" x1="2316.05" y1="595.21" x2="2154.86" y2="503.49"/>
        <line class="cls-2" x1="2305.6" y1="599.91" x2="2145.32" y2="508.82"/>
        <line class="cls-2" x1="2295.15" y1="604.61" x2="2135.77" y2="514.14"/>
      </g>
    </g>
  </g>
</svg>